<svg width="256" height="256" viewBox="0 0 256 256" fill="none" xmlns="http://www.w3.org/2000/svg">
<rect x="80" y="80" width="16" height="16" fill="currentColor"/>
<rect x="80" y="96" width="16" height="16" fill="currentColor"/>
<rect x="80" y="112" width="16" height="16" fill="currentColor"/>
<rect x="80" y="128" width="16" height="16" fill="currentColor"/>
<rect x="80" y="144" width="16" height="16" fill="currentColor"/>
<rect x="80" y="160" width="16" height="16" fill="currentColor"/>
<rect x="80" y="176" width="16" height="16" fill="currentColor"/>
<rect x="80" y="192" width="16" height="16" fill="currentColor"/>
<rect x="96" y="80" width="16" height="16" fill="currentColor"/>
<rect x="96" y="96" width="16" height="16" fill="currentColor"/>
<rect x="96" y="112" width="16" height="16" fill="currentColor"/>
<rect x="96" y="128" width="16" height="16" fill="currentColor"/>
<rect x="96" y="144" width="16" height="16" fill="currentColor"/>
<rect x="96" y="160" width="16" height="16" fill="currentColor"/>
<rect x="96" y="176" width="16" height="16" fill="currentColor"/>
<rect x="96" y="192" width="16" height="16" fill="currentColor"/>
<rect x="112" y="80" width="16" height="16" fill="currentColor"/>
<rect x="112" y="96" width="16" height="16" fill="currentColor"/>
<rect x="112" y="112" width="16" height="16" fill="currentColor"/>
<rect x="112" y="128" width="16" height="16" fill="currentColor"/>
<rect x="112" y="144" width="16" height="16" fill="currentColor"/>
<rect x="112" y="160" width="16" height="16" fill="currentColor"/>
<rect x="112" y="176" width="16" height="16" fill="currentColor"/>
<rect x="112" y="192" width="16" height="16" fill="currentColor"/>
<rect x="128" y="80" width="16" height="16" fill="currentColor"/>
<rect x="128" y="96" width="16" height="16" fill="currentColor"/>
<rect x="128" y="112" width="16" height="16" fill="currentColor"/>
<rect x="128" y="128" width="16" height="16" fill="currentColor"/>
<rect x="128" y="144" width="16" height="16" fill="currentColor"/>
<rect x="128" y="160" width="16" height="16" fill="currentColor"/>
<rect x="128" y="176" width="16" height="16" fill="currentColor"/>
<rect x="128" y="192" width="16" height="16" fill="currentColor"/>
<rect x="144" y="80" width="16" height="16" fill="currentColor"/>
<rect x="144" y="96" width="16" height="16" fill="currentColor"/>
<rect x="144" y="112" width="16" height="16" fill="currentColor"/>
<rect x="144" y="128" width="16" height="16" fill="currentColor"/>
<rect x="144" y="144" width="16" height="16" fill="currentColor"/>
<rect x="144" y="160" width="16" height="16" fill="currentColor"/>
<rect x="144" y="176" width="16" height="16" fill="currentColor"/>
<rect x="144" y="192" width="16" height="16" fill="currentColor"/>
<rect x="160" y="80" width="16" height="16" fill="currentColor"/>
<rect x="160" y="96" width="16" height="16" fill="currentColor"/>
<rect x="160" y="112" width="16" height="16" fill="currentColor"/>
<rect x="160" y="128" width="16" height="16" fill="currentColor"/>
<rect x="160" y="144" width="16" height="16" fill="currentColor"/>
<rect x="160" y="160" width="16" height="16" fill="currentColor"/>
<rect x="160" y="176" width="16" height="16" fill="currentColor"/>
<rect x="160" y="192" width="16" height="16" fill="currentColor"/>
<rect x="208" y="128" width="16" height="16" fill="currentColor"/>
<rect x="208" y="112" width="16" height="16" fill="currentColor"/>
<rect x="192" y="96" width="16" height="16" fill="currentColor"/>
<rect x="192" y="112" width="16" height="16" fill="currentColor"/>
<rect x="192" y="128" width="16" height="16" fill="currentColor"/>
<rect x="192" y="144" width="16" height="16" fill="currentColor"/>
<rect x="192" y="160" width="16" height="16" fill="currentColor"/>
<rect x="192" y="176" width="16" height="16" fill="currentColor"/>
<rect x="192" y="192" width="16" height="16" fill="currentColor"/>
<rect x="176" y="80" width="16" height="16" fill="currentColor"/>
<rect x="176" y="96" width="16" height="16" fill="currentColor"/>
<rect x="176" y="112" width="16" height="16" fill="currentColor"/>
<rect x="176" y="128" width="16" height="16" fill="currentColor"/>
<rect x="176" y="144" width="16" height="16" fill="currentColor"/>
<rect x="176" y="160" width="16" height="16" fill="currentColor"/>
<rect x="176" y="176" width="16" height="16" fill="currentColor"/>
<rect x="176" y="192" width="16" height="16" fill="currentColor"/>
<rect x="208" y="144" width="16" height="16" fill="currentColor"/>
<rect x="208" y="160" width="16" height="16" fill="currentColor"/>
<rect x="208" y="176" width="16" height="16" fill="currentColor"/>
<rect x="208" y="192" width="16" height="16" fill="currentColor"/>
<rect x="128" y="208" width="16" height="16" fill="currentColor"/>
<rect x="176" y="208" width="16" height="16" fill="currentColor"/>
<rect x="192" y="208" width="16" height="16" fill="currentColor"/>
<rect x="144" y="208" width="16" height="16" fill="currentColor"/>
<rect x="112" y="208" width="16" height="16" fill="currentColor"/>
<rect x="160" y="208" width="16" height="16" fill="currentColor"/>
<rect x="96" y="208" width="16" height="16" fill="currentColor"/>
<rect x="80" y="208" width="16" height="16" fill="currentColor"/>
<rect x="64" y="208" width="16" height="16" fill="currentColor"/>
<rect x="48" y="208" width="16" height="16" fill="currentColor"/>
<rect x="32" y="192" width="16" height="16" fill="currentColor"/>
<rect x="32" y="128" width="16" height="16" fill="currentColor"/>
<rect x="32" y="176" width="16" height="16" fill="currentColor"/>
<rect x="32" y="160" width="16" height="16" fill="currentColor"/>
<rect x="32" y="112" width="16" height="16" fill="currentColor"/>
<rect x="32" y="144" width="16" height="16" fill="currentColor"/>
<rect x="48" y="96" width="16" height="16" fill="currentColor"/>
<rect x="48" y="112" width="16" height="16" fill="currentColor"/>
<rect x="48" y="128" width="16" height="16" fill="currentColor"/>
<rect x="48" y="144" width="16" height="16" fill="currentColor"/>
<rect x="48" y="160" width="16" height="16" fill="currentColor"/>
<rect x="48" y="176" width="16" height="16" fill="currentColor"/>
<rect x="48" y="192" width="16" height="16" fill="currentColor"/>
<rect x="64" y="80" width="16" height="16" fill="currentColor"/>
<rect x="64" y="96" width="16" height="16" fill="currentColor"/>
<rect x="64" y="112" width="16" height="16" fill="currentColor"/>
<rect x="64" y="128" width="16" height="16" fill="currentColor"/>
<rect x="64" y="144" width="16" height="16" fill="currentColor"/>
<rect x="64" y="160" width="16" height="16" fill="currentColor"/>
<rect x="64" y="176" width="16" height="16" fill="currentColor"/>
<rect x="64" y="192" width="16" height="16" fill="currentColor"/>
</svg>
